<?xml version="1.0" encoding="UTF-8"?>
<svg width="739px" height="417px" viewBox="0 0 739 417" version="1.1" xmlns="http://www.w3.org/2000/svg" xmlns:xlink="http://www.w3.org/1999/xlink">
    <!-- Generator: Sketch 59.1 (86144) - https://sketch.com -->
    <title>logo-leo</title>
    <desc>Created with Sketch.</desc>
    <g id="Page-1" stroke="none" stroke-width="1" fill="none" fill-rule="evenodd">
        <g id="logo-leo" fill="#F9E900" fill-rule="nonzero">
            <path d="M488.193193,282.841838 C488.193193,251.894816 488.193193,220.947793 488.193193,190.00077 C488.083089,185.781502 488.300155,181.560041 488.842439,177.374385 C490.405662,161.310116 504.269975,149.289298 520.377215,150.03269 C582.210109,150.03269 644.135752,150.03269 706.154145,150.03269 C723.822895,150.03269 734.952816,159.59532 738.106293,176.9566 C738.771763,181.099907 739.066639,185.294381 738.987412,189.490144 C738.987412,252.405442 738.987412,315.305265 738.987412,378.189616 C738.987412,388.541395 737.828045,398.56823 730.176225,406.738244 C724.306538,413.372182 715.841062,417.117623 706.988889,416.997182 C644.475833,416.997182 581.947319,416.997182 519.403347,416.997182 C503.657614,417.126959 490.398874,405.242618 488.796064,389.562646 C488.077127,381.16557 487.844865,372.733849 488.100444,364.309876 C488.146819,337.014602 488.193193,309.90501 488.193193,282.841838 Z M567.49388,284.048772 C567.49388,298.439138 567.49388,312.875924 567.49388,327.26629 C567.49388,336.87534 572.131347,342.167281 581.406281,342.399384 C602.089384,342.863589 622.772487,342.91001 643.455591,342.399384 C653.240646,342.12086 658.156361,336.968181 658.202736,327.684074 C658.480984,298.253456 658.480984,268.853784 658.202736,239.48506 C658.202736,229.829588 653.565269,225.558899 644.290335,225.558899 C623.298067,225.34227 602.3058,225.34227 581.313532,225.558899 C570.925606,225.558899 567.401131,229.504645 567.401131,240.088526 C567.354756,254.618154 567.447505,269.333463 567.49388,284.280875 L567.49388,284.048772 Z" id="Shape"></path>
            <path d="M336.232801,327.636545 C335.954653,323.739074 335.537431,320.583978 335.537431,317.428882 C335.537431,298.451907 335.815579,279.521331 335.537431,260.590755 C334.870113,253.88507 338.622048,247.519992 344.809037,244.861673 C353.70978,240.221826 363.676757,233.958033 370.769536,229.17899 C371.173632,228.442062 371.173632,227.549596 370.769536,226.812668 C369.147004,225.095925 365.762868,225.420714 363.444966,225.374316 C348.424964,225.374316 333.404961,225.374316 318.384959,225.374316 C308.603414,225.374316 305.404709,228.483013 305.311993,238.505083 C305.095656,269.189938 305.095656,299.859327 305.311993,330.51325 C305.311993,339.792945 308.835204,342.484056 319.219403,342.576853 C345.643482,342.576853 372.067561,342.576853 398.537997,342.576853 C417.08121,342.576853 435.207201,342.576853 453.518624,342.576853 C458.743481,341.671096 463.773656,344.980103 465.015416,350.139804 C470.949244,369.348771 477.022147,388.542271 483.234123,407.720306 C485.876531,415.932835 481.333444,417 474.936035,417 C440.955597,417 407.021517,417 372.948363,417 L262.199023,417 C239.622661,417 224.046362,401.642106 224,379.231645 C224,313.995395 224,248.743679 224,183.476497 C223.991544,165.494614 238.261083,150.760537 256.218837,150.208793 C313.610081,149.930402 371.001326,149.930402 428.39257,150.208793 C446.93576,151.078201 461.835354,165.810639 462.929305,184.358068 C463.439243,208.995656 463.300169,233.679642 462.929305,258.31723 C462.72442,262.294702 460.75152,265.971582 457.551773,268.3393 C418.796458,288.197845 379.762994,307.499609 340.72953,326.89417 C339.261116,327.300309 337.753748,327.549164 336.232801,327.636545 L336.232801,327.636545 Z" id="Path"></path>
            <path d="M0,193.589664 C0,133.199079 0,72.8393852 0,12.5105814 C0,0.0463354867 0,0 12.55529,0 L70.2354966,0 C84.7829543,0 84.8292838,0 84.8292838,14.2713299 C84.8292838,114.26331 84.8292838,214.255291 84.8292838,314.247271 C84.8292838,342.048563 85.1999196,342.048563 113.229257,342.048563 C138.432496,342.048563 163.635735,342.048563 188.885303,342.048563 C194.67715,341.166154 200.177594,344.873894 201.533252,350.574293 C207.97305,369.108487 214.922473,387.642682 221.918225,406.176877 C224.744323,413.63689 221.918225,416 214.783484,416 C155.620734,416 96.5043135,416 37.3415635,416 C15.9836717,416 0.277976899,398.438851 0.277976899,375.410114 C0.0463294832,338.758744 0.277976899,302.153709 0.277976899,265.502339 L0,193.589664 Z" id="Path"></path>
        </g>
    </g>
</svg>